<svg
        id="svg2"
        xmlns:rdf="http://www.w3.org/1999/02/22-rdf-syntax-ns#"
        xmlns="http://www.w3.org/2000/svg"
        height="320"
        width="800"
        version="1.1"
        xmlns:cc="http://creativecommons.org/ns#"
        xmlns:dc="http://purl.org/dc/elements/1.1/"
        viewBox="0 0 800 320">
 <g id="layer1" transform="translate(0,23)">
  <g id="g77" transform="matrix(0.26458333,0,0,0.26458333,-530.17262,-131.75595)">
   <path id="path29"
         style="fill:#009bb0;fill-rule:evenodd;stroke-width:6.49237585"
         d="m 3242.9131,720.75802 h 71.45 v 101.15191 h -71.45 z m 71.45,556.33428 v 101.1522 c -39.4595,0 -71.45,-45.2889 -71.45,-101.1522 V 872.4855 h 71.45 z" />
   <path id="path31"
         style="fill:#1b1918;fill-rule:evenodd;stroke-width:6.49237585"
         d="m 3707.3355,1170.3702 v -60.1415 c 10.2648,-12.0089 17.2492,-22.4012 21.0271,-31.0795 5.3463,-12.3112 9.765,-33.7037 13.3287,-64.2793 h 39.3452 l -4.4192,27.4463 v 334.4149 h -38.918 v -230.1752 c -10.2632,10.0909 -20.385,17.962 -30.3638,23.8143 z m 0,-140.7676 v -61.45366 c 8.4113,-8.27495 14.8974,-17.15458 19.388,-26.64081 6.4141,-14.12657 11.4751,-36.73113 15.1114,-68.01285 h 39.2016 c -4.49,31.18137 -8.0544,52.97724 -10.9048,65.4907 -9.0522,41.06921 -30.0087,71.24112 -62.7962,90.61662 z m 84.2507,-0.3013 v -60.54441 c 11.2616,-12.8155 18.6749,-24.42148 22.3094,-34.71329 4.4909,-12.10951 8.4113,-32.29073 11.904,-60.54599 h 39.3461 l -4.8476,33.40145 h 94.8713 v 55.09621 h -52.3897 v 83.55313 h 52.3897 v 55.097 h -52.3897 v 72.0491 h 52.3897 v 55.0954 h -52.3897 v 93.8466 h 52.3897 v 55.0969 h -111.9782 c -10.6206,0 -19.3869,-4.9447 -26.3725,-14.9352 -6.8434,-9.4862 -10.2636,-22.1999 -10.2636,-38.042 v -180.1244 h 39.3441 v 158.1255 c 0,8.8796 1.1416,14.5304 3.3503,16.9532 1.9251,1.9164 5.3463,2.926 10.2638,2.926 h 4.7766 v -220.9911 h -57.7348 v -55.097 h 57.7348 v -83.55313 h -16.3226 c -10.4073,22.40138 -20.1006,38.14313 -29.0106,47.22533 -6.2723,6.5592 -15.3957,13.2203 -27.3705,20.0807 z m 183.4695,347.4321 V 939.08867 c 0,-20.98855 1.5675,-34.91479 4.775,-41.87655 7.4841,-15.84372 20.3151,-23.71451 38.3472,-23.71451 h 34.7842 c 27.8693,0 41.84,19.67748 41.84,59.03267 v 330.47802 c 0,19.9805 -1.7822,33.8043 -5.4172,41.4733 -3.7061,8.0726 -7.8399,13.8246 -12.2597,17.1549 -4.847,3.7334 -12.9014,5.6515 -24.1631,5.6515 h -30.2219 v -54.493 h 20.5994 c 4.4192,0 7.6974,-1.8153 9.8359,-5.3471 2.068,-3.7334 3.137,-11.503 3.137,-23.411 V 960.78399 c 0,-14.83256 -1.1411,-23.91465 -3.3504,-27.04243 -2.2092,-3.43139 -5.7019,-5.14795 -10.4782,-5.14795 h -17.1782 c -4.0628,0 -7.3411,2.42334 -9.9067,7.1648 -1.2126,2.42257 -1.8537,9.78829 -1.8537,22.09948 v 418.87551 z" />
   <path
           id="path33"
           style="fill:#1b1918;fill-rule:evenodd;stroke-width:6.49237585"
           d="m 4130.5271,1372.7945 v -54.4906 c 3.3502,-1.3125 5.6306,-3.1278 6.9144,-5.2467 1.6393,-2.9262 2.85,-8.9818 3.4928,-18.0639 l 21.9526,-250.7589 h 38.277 l -20.6709,244.3009 c -2.1379,23.7145 -3.8495,37.841 -5.2754,42.5842 -7.4831,25.8328 -22.3805,39.7577 -44.6905,41.675 z m 2.0668,-415.6459 v -56.91137 h 57.4507 v -27.75097 h 38.9176 v 27.75097 h 192.1649 v -27.75097 h 39.2742 v 27.75097 h 57.0939 v 56.91137 h -57.0939 v 42.4839 h -39.2742 v -42.4839 h -192.1649 v 42.4839 h -38.9176 v -42.4839 z m 111.1937,75.2798 h 38.4897 v 247.8327 c 0,14.7322 2.2819,25.2273 6.9143,31.2827 4.2765,5.9528 10.1214,8.8791 17.3202,8.8791 h 128.7994 v 55.097 H 4305.086 c -16.8209,0 -29.0096,-3.5325 -36.4938,-10.6969 -16.5371,-15.6412 -24.8046,-38.4467 -24.8046,-68.3148 z m 96.5813,-0.3013 h 38.062 l 3.7786,165.0884 c 0.2837,13.4213 1.069,21.3925 2.2802,24.0153 1.1411,2.3219 3.6363,4.1373 7.5558,5.2483 v 54.0864 c -12.5441,-1.4127 -22.4525,-6.1545 -29.6513,-14.2285 -6.7006,-7.6678 -11.3338,-15.7417 -13.8285,-24.2167 -2.7791,-9.5873 -4.3472,-22.2013 -4.6324,-37.7407 z m 107.9154,0 h 38.49 l 13.7563,204.4429 c 2.4235,37.0324 4.2758,58.0222 5.7016,63.1687 1.3549,5.752 5.1321,11.5039 11.263,17.4566 v 58.3268 c -13.8285,-6.1567 -24.5201,-14.5305 -32.2181,-25.1267 -6.6996,-9.2837 -11.4046,-18.6678 -14.1842,-28.1549 -3.0643,-10.3923 -5.1318,-23.7131 -6.0583,-39.858 z" />
   <path
           id="path35"
           style="fill:#1b1918;fill-rule:evenodd;stroke-width:6.49237585"
           d="m 4553.2201,1171.1773 v -60.645 c 11.4035,-13.1191 18.8167,-24.4197 22.2384,-34.1084 4.2763,-11.5032 8.1969,-31.6851 11.6897,-60.747 h 39.4168 l -4.4909,28.2555 v 334.3121 h -38.9179 v -230.6797 c -9.2668,9.8893 -19.2448,17.7602 -29.9361,23.6125 z m 0,-141.6767 v -59.83833 c 10.2636,-11.8067 17.391,-22.80548 21.3829,-32.99694 5.4173,-13.22024 9.6936,-33.70351 12.6877,-61.65537 h 39.2743 c -2.2105,14.93313 -3.8496,26.13494 -4.7768,33.60334 -3.9206,28.15259 -10.1923,50.85751 -18.9593,68.41543 -9.0521,17.86057 -19.6727,31.58407 -31.9319,41.27247 -3.8495,2.926 -9.7662,6.6587 -17.6769,11.1994 z m 83.3952,348.7439 v -57.922 c 6.5577,-5.3496 9.8353,-13.0173 9.8353,-23.0071 v -72.352 c 0,-17.7605 4.2054,-32.6948 12.6874,-44.9048 7.6983,-10.797 21.8824,-16.247 42.5528,-16.247 h 33.0736 c 32.6448,0 48.9685,21.7974 48.9685,65.2877 v 60.5459 c 0,11.8062 1.0687,19.5766 3.2781,23.3092 1.2108,2.1198 3.4212,4.6427 6.5573,7.3681 v 57.922 c -13.8984,-2.9263 -24.8758,-8.8815 -32.9302,-17.7605 -4.1338,-4.4394 -7.6266,-10.5961 -10.4066,-18.2653 -3.9196,-10.4935 -5.8445,-20.9885 -5.8445,-31.6852 v -67.9117 c 0,-16.3476 -7.1279,-24.5212 -21.4552,-24.5212 h -16.8927 c -6.9856,0 -11.9749,2.2202 -14.8973,6.5592 -3.8487,5.4498 -5.7733,13.9264 -5.7733,25.329 v 60.5447 c 0,19.1731 -4.2761,34.714 -12.7582,46.7208 -6.7,9.6878 -18.6751,16.6511 -35.995,20.9902 z m 4.2758,-242.4857 v -49.6462 h 147.9736 v 49.6462 z m 0,-261.05243 h 35.0682 v 105.85408 c 0,8.27504 1.1417,13.82385 3.3504,16.54895 2.4953,2.9263 6.771,4.4397 12.902,4.4397 h 5.1319 V 874.70637 h 37.2063 v 126.84273 h 5.5595 c 5.0611,0 8.7684,-2.0171 11.0486,-5.9528 2.3527,-3.93513 3.4927,-7.97211 3.4927,-12.10973 v -108.7802 h 34.214 V 997.4131 c 0,20.9885 -5.3462,36.4267 -16.0378,46.2156 -5.8457,5.3489 -16.2518,7.9713 -31.22,7.9713 h -56.2384 c -15.5388,0 -27.1569,-5.5488 -34.8551,-16.5489 -3.3502,-4.8444 -5.4879,-9.2839 -6.4858,-13.2182 -2.0672,-8.2754 -3.1365,-20.4855 -3.1365,-36.833 z m 159.8048,500.91393 v -52.9774 c 11.4054,-6.257 19.673,-11.7047 24.8758,-16.2468 5.2755,-4.6411 12.6166,-13.0172 22.0967,-25.0256 -9.6934,-26.2353 -16.3226,-48.9403 -19.8152,-68.2145 -4.3484,-22.9059 -6.4861,-46.2166 -6.4861,-70.0306 v -102.1193 c -5.418,5.1457 -11.8322,9.2823 -19.2454,12.7128 v -57.2151 c 6.7001,-10.39294 11.4053,-24.31944 14.0419,-41.57452 3.065,-21.08969 5.2035,-47.83161 6.4868,-80.22291 h 35.0683 v 33.40165 h 82.6827 v 54.49057 h -20.2436 v 187.89221 c 0,41.3731 -8.9095,84.9662 -26.6574,130.8797 6.9855,9.3842 12.6161,16.4478 16.9633,20.8896 6.1299,6.1544 16.1093,12.916 29.9377,20.3828 v 52.9774 c -19.2462,-7.467 -33.857,-15.6414 -43.7651,-24.2183 -7.2697,-6.1545 -15.8233,-15.7419 -25.7313,-28.7591 -14.8969,17.3555 -26.5149,29.0627 -34.9261,34.9151 -7.3423,5.5503 -19.1028,11.5031 -35.283,18.0623 z m 22.5246,-336.1298 h 32.217 l -0.6418,87.6913 c -0.1423,31.1801 5.061,66.3983 15.6817,105.7529 9.7653,-30.3743 14.6118,-58.9316 14.6118,-85.672 V 962.59859 h -32.5737 c -5.5598,28.85935 -11.4755,48.94021 -17.748,60.14211 -2.5672,4.743 -6.3442,10.2918 -11.547,16.7498 z" />
   <path
           id="path37"
           style="fill:#009bb0;fill-rule:evenodd;stroke-width:6.49237585"
           d="M 2635.5936,771.33359 V 670.18174 H 2492.695 c -39.4595,0 -71.4493,45.2895 -71.4493,101.15185 v 505.75871 c 0,55.8633 31.9898,101.1522 71.4493,101.1522 h 142.8986 v -101.1522 h -71.4493 c -39.4595,0 -71.4493,-45.2893 -71.4493,-101.1519 V 771.33359 Z" />
   <path
           id="path39"
           style="fill:#009bb0;fill-rule:evenodd;stroke-width:6.49237585"
           d="m 2885.6661,872.4855 v 101.15269 h -142.8985 v 202.30221 c 0,55.8626 31.9905,101.1519 71.4494,101.1519 h 71.4491 v 101.1522 h -142.8985 c -39.4592,0 -71.4491,-45.2889 -71.4491,-101.1522 V 973.63819 c 0,-55.86313 31.9899,-101.15269 71.4491,-101.15269 z" />
   <path
           id="path41"
           style="fill:#009bb0;fill-rule:evenodd;stroke-width:6.49237585"
           d="m 3207.1888,1277.0923 v 101.1522 c -39.4594,0 -71.4492,-45.2889 -71.4492,-101.1522 v -202.3022 c 0,-55.8632 -31.9905,-101.15191 -71.4499,-101.15191 h -71.4492 v 303.45411 101.1522 c -39.4587,0 -71.4493,-45.2889 -71.4493,-101.1522 V 973.63819 872.4855 771.33359 670.18174 c 39.4593,0 71.4493,45.2895 71.4493,101.15185 V 872.4855 h 142.8991 c 39.4587,0 71.4492,45.28956 71.4492,101.15269 z" />
   <path
           id="path43"
           style="fill:#009bb0;fill-rule:evenodd;stroke-width:6.49237585"
           d="m 3564.4357,872.4855 c 39.4588,0 71.4493,45.28956 71.4493,101.15269 v 303.45411 c 0,55.8633 -31.9905,101.1522 -71.4493,101.1522 h -142.899 v 101.1519 101.1527 c -39.4588,0 -71.4493,-45.2897 -71.4493,-101.1527 V 1378.2445 1277.0923 973.63819 872.4855 h 71.4493 z m 0,101.15269 h -142.899 v 202.30221 c 0,55.8626 31.9904,101.1519 71.4492,101.1519 h 71.4498 z" />
   <path
           id="path45"
           style="fill:#009bb0;fill-rule:evenodd;stroke-width:6.49237585"
           d="m 2171.1725,1175.9404 c 0,55.8626 31.9904,101.1519 71.4497,101.1519 h 71.4492 V 670.18174 h 71.4493 v 606.91056 c 0,55.8633 -31.9904,101.1522 -71.4493,101.1522 h -142.8989 c -39.4588,0 -71.4494,-45.2889 -71.4494,-101.1522 V 670.18174 h 71.4494 z" />
   <path
           id="path47"
           style="fill:#1b1918;fill-rule:evenodd;stroke-width:6.49237585"
           d="m 2634.5791,1168.1285 -9.1479,-22.4317 c -57.1362,-140.1037 -22.9146,-320.91549 76.0487,-401.80419 l 269.9066,-220.61185 c 92.3942,-75.52074 209.8435,-38.28992 271.5272,80.99925 -68.2998,-90.12003 -173.9184,-108.10431 -256.3958,-34.51246 L 2718.949,808.50812 c -86.2666,76.97136 -119.6123,229.49608 -84.3699,359.62038 z" />
  </g>
 </g>
</svg>
